<!DOCTYPE svg PUBLIC "-//W3C//DTD SVG 20010904//EN" "http://www.w3.org/TR/2001/REC-SVG-20010904/DTD/svg10.dtd">
<svg version="1.0" xmlns="http://www.w3.org/2000/svg" width="375px" height="854px" viewBox="0 0 3750 8540" preserveAspectRatio="xMidYMid meet">
<g id="layer101" fill="#222018" stroke="none">
 <path d="M0 4270 l0 -4270 1875 0 1875 0 0 4270 0 4270 -1875 0 -1875 0 0 -4270z"/>
 </g>
<g id="layer102" fill="#d8b46a" stroke="none">
 <path d="M0 4270 l0 -4270 1875 0 1875 0 0 4270 0 4270 -1875 0 -1875 0 0 -4270z m3070 1664 c40 -63 70 -117 67 -120 -2 -2 -16 0 -31 6 -40 15 -71 12 -95 -7 -14 -12 -70 -148 -162 -392 -77 -206 -147 -387 -155 -402 -13 -26 -50 -59 -65 -59 -4 0 -17 33 -29 73 -11 39 -39 122 -62 182 -47 126 -234 563 -249 582 -6 6 -24 15 -40 18 -44 10 -145 81 -168 119 -12 18 -21 45 -21 59 l0 26 33 -19 c86 -51 217 -46 295 10 l40 29 63 -72 c34 -40 72 -82 83 -95 18 -21 19 -24 3 -39 -13 -13 -19 -14 -31 -3 -13 10 -23 9 -53 -6 -21 -9 -59 -19 -85 -22 -27 -2 -48 -6 -48 -8 0 -2 12 -33 26 -69 l26 -65 164 0 c188 0 164 -15 214 133 48 143 83 196 149 230 30 15 56 27 57 27 1 0 34 -52 74 -116z m-1262 -814 c12 -16 56 -52 97 -80 66 -44 74 -53 65 -70 -14 -26 -23 -30 -40 -20 -10 6 -22 2 -37 -12 l-23 -21 0 -392 0 -391 31 -18 c26 -15 69 -69 69 -87 0 -3 -13 -4 -30 -1 -48 7 -79 -6 -130 -54 -27 -25 -53 -44 -58 -42 -20 7 -192 123 -192 130 0 3 12 11 28 17 15 5 37 19 50 30 21 18 22 27 22 155 l0 136 -110 0 -110 0 0 -189 c0 -171 -2 -189 -17 -193 -44 -11 -43 -17 -43 449 0 420 -1 445 -17 438 -34 -13 -149 -17 -208 -7 -133 22 -249 90 -294 170 -13 24 -21 45 -19 47 2 2 25 -6 50 -19 95 -48 224 -42 349 15 l70 33 98 -104 c96 -103 97 -105 77 -121 -11 -9 -26 -14 -33 -12 -10 4 -13 -30 -13 -161 l0 -166 110 0 110 0 0 172 0 172 -35 36 -35 36 58 42 c32 23 73 58 92 77 19 19 37 35 40 35 3 0 16 -13 28 -30z m-647 -242 c58 -20 109 -60 137 -107 l27 -46 5 -310 c3 -170 9 -316 13 -322 13 -21 -24 -15 -79 12 -27 13 -67 43 -89 65 l-40 41 -5 307 c-4 249 -8 311 -20 330 -8 12 -18 22 -22 22 -5 0 -8 5 -8 10 0 13 39 13 81 -2z"/>
 <path d="M2490 5483 c0 -5 21 -61 47 -126 l48 -118 14 33 c7 18 28 75 47 126 l33 92 -94 0 c-52 0 -95 -3 -95 -7z"/>
 </g>
<g id="layer103" fill="#fffffd" stroke="none">
 <path d="M0 4270 l0 -4270 1875 0 1875 0 0 4270 0 4270 -1875 0 -1875 0 0 -4270z m2345 4045 c84 -22 165 -69 242 -139 73 -66 223 -235 223 -249 0 -5 -21 -7 -47 -4 -131 14 -779 -90 -917 -148 -105 -44 -156 -102 -156 -177 0 -37 325 -2147 441 -2863 31 -193 47 -243 100 -326 l30 -47 -25 -89 c-54 -196 -105 -466 -142 -752 -40 -316 -122 -738 -403 -2086 -82 -394 -175 -684 -298 -928 -71 -142 -200 -319 -255 -348 -35 -19 -51 7 -45 69 l6 54 -22 -20 c-91 -82 -139 -33 -118 121 13 92 67 304 106 416 14 41 25 78 25 83 0 5 -17 -3 -37 -17 -64 -43 -103 -29 -103 34 2 91 58 181 216 346 74 78 134 150 149 181 l25 50 -15 148 c-9 81 -20 252 -25 380 -7 169 -16 268 -35 371 -60 334 -77 450 -115 787 -46 409 -67 534 -103 635 -15 39 -56 173 -91 297 -77 267 -89 298 -218 571 -181 381 -216 459 -251 570 -114 354 -210 859 -211 1120 -1 129 1 147 28 230 36 108 177 391 266 533 148 235 323 447 523 630 276 253 426 356 672 459 273 115 435 145 580 108z m483 -460 c32 -10 58 -25 68 -40 9 -13 93 -418 198 -957 101 -513 235 -1191 297 -1507 110 -564 112 -576 102 -647 -13 -93 -55 -180 -130 -274 -103 -128 -153 -253 -153 -383 0 -86 128 -959 141 -968 15 -9 32 -101 20 -108 -6 -4 -6 -25 0 -56 5 -27 6 -52 2 -56 -7 -6 -347 -69 -372 -69 -5 0 -12 21 -16 47 -4 25 -13 52 -20 59 -17 18 -31 114 -17 123 12 7 -166 848 -196 929 -50 131 -133 227 -261 304 -103 62 -208 164 -245 239 -14 30 -33 93 -41 139 -12 72 -343 2182 -436 2783 -30 194 -30 198 -12 229 42 71 168 113 528 173 353 59 454 66 543 40z"/>
 </g>

</svg>