<!DOCTYPE svg PUBLIC "-//W3C//DTD SVG 20010904//EN" "http://www.w3.org/TR/2001/REC-SVG-20010904/DTD/svg10.dtd">
<svg version="1.0" xmlns="http://www.w3.org/2000/svg" width="375px" height="854px" viewBox="0 0 3750 8540" preserveAspectRatio="xMidYMid meet">
<g id="layer101" fill="#1b1b19" stroke="none">
 <path d="M2159 8330 c-125 -15 -309 -77 -504 -170 -313 -149 -766 -568 -1013 -937 -123 -185 -254 -428 -318 -594 -50 -131 -60 -206 -45 -357 35 -348 136 -826 233 -1100 16 -48 82 -194 145 -327 208 -433 224 -473 302 -747 33 -117 76 -259 95 -314 39 -114 56 -219 111 -711 19 -171 55 -423 80 -560 47 -260 65 -414 65 -573 0 -52 7 -181 17 -286 l17 -191 -27 -46 c-15 -25 -80 -101 -145 -169 -126 -131 -172 -192 -196 -254 -35 -95 -27 -154 21 -154 16 0 43 9 61 20 18 11 34 20 37 20 2 0 -3 -16 -11 -36 -50 -119 -124 -432 -124 -523 0 -97 46 -128 110 -74 l32 26 -7 -46 c-8 -51 4 -77 35 -77 24 0 129 113 185 199 62 95 162 306 215 451 82 227 130 427 289 1195 199 964 245 1207 276 1455 33 259 89 571 132 739 19 75 37 146 40 158 3 14 -4 34 -21 55 -59 78 -72 129 -130 493 -220 1395 -416 2669 -416 2705 0 82 67 146 200 189 156 50 584 121 788 130 l144 6 -99 115 c-143 165 -235 235 -353 270 -85 24 -140 29 -221 20z"/>
 <path d="M2545 7858 c-374 -56 -599 -102 -685 -139 -61 -26 -110 -79 -110 -118 0 -16 86 -577 190 -1248 268 -1713 279 -1779 297 -1826 38 -98 141 -206 266 -278 131 -77 230 -205 271 -349 8 -30 54 -237 102 -460 64 -298 84 -408 76 -420 -12 -20 4 -110 22 -125 7 -5 15 -29 19 -53 3 -24 8 -46 11 -49 7 -7 368 56 379 66 4 4 3 29 -2 56 -6 32 -6 52 0 56 13 8 0 91 -16 105 -16 12 -145 878 -145 969 0 130 55 268 151 381 85 99 139 229 139 332 0 24 -63 361 -140 750 -76 389 -209 1065 -295 1502 -172 881 -156 825 -243 849 -44 13 -203 12 -287 -1z"/>
 </g>
<g id="layer102" fill="#d0b274" stroke="none">
 <path d="M2635 8140 c27 -27 51 -50 54 -50 3 0 -17 23 -44 50 -27 28 -51 50 -54 50 -3 0 17 -22 44 -50z"/>
 <path d="M2673 7923 c26 -2 67 -2 90 0 23 2 2 3 -48 3 -49 0 -68 -1 -42 -3z"/>
 <path d="M1194 7838 l-29 -33 33 29 c30 28 37 36 29 36 -2 0 -16 -15 -33 -32z"/>
 <path d="M2613 7863 c9 -2 25 -2 35 0 9 3 1 5 -18 5 -19 0 -27 -2 -17 -5z"/>
 <path d="M1090 7745 c-24 -25 -42 -45 -39 -45 3 0 25 20 49 45 24 25 42 45 39 45 -3 0 -25 -20 -49 -45z"/>
 <path d="M1693 7595 c0 -22 2 -30 4 -17 2 12 2 30 0 40 -3 9 -5 -1 -4 -23z"/>
 <path d="M894 7548 l-29 -33 33 29 c17 17 32 31 32 33 0 8 -8 1 -36 -29z"/>
 <path d="M273 6380 c0 -41 2 -58 4 -37 2 20 2 54 0 75 -2 20 -4 3 -4 -38z"/>
 <path d="M2970 6036 c-19 -6 -53 -29 -76 -51 -40 -40 -43 -47 -135 -302 -8 -23 -12 -23 -172 -23 l-164 0 -27 61 c-14 33 -26 64 -26 68 0 5 22 11 49 14 28 3 65 13 82 23 27 13 36 14 52 4 16 -9 22 -9 34 3 14 13 6 26 -67 110 l-82 95 -41 -29 c-79 -55 -209 -59 -294 -9 l-33 19 0 -26 c0 -14 9 -41 21 -59 23 -38 124 -109 168 -119 16 -3 34 -12 39 -18 13 -17 196 -440 242 -562 21 -55 50 -139 65 -187 14 -49 30 -88 34 -88 4 0 20 13 37 29 23 23 60 111 174 412 89 237 153 393 167 407 24 24 71 29 105 11 11 -6 22 -8 25 -6 2 3 -23 49 -57 104 -89 141 -79 131 -120 119z m-326 -663 c-24 -65 -45 -122 -47 -127 -1 -4 -26 49 -54 118 l-52 126 98 0 99 0 -44 -117z"/>
 <path d="M1757 5127 c-8 -13 -47 -48 -85 -77 l-70 -54 34 -40 34 -40 0 -168 0 -168 -110 0 -110 0 0 165 c0 132 3 163 13 159 7 -2 22 5 32 16 19 21 18 22 -82 122 l-101 100 -63 -31 c-122 -59 -271 -61 -365 -6 l-44 26 12 -28 c33 -79 115 -146 223 -183 65 -23 210 -31 278 -17 l37 8 0 -446 0 -446 28 3 27 3 3 188 2 187 110 0 110 0 0 -138 0 -138 -37 -23 c-21 -13 -45 -27 -53 -31 -8 -5 -12 -11 -10 -13 11 -9 190 -127 193 -127 2 0 26 20 53 45 57 53 99 70 138 56 14 -6 26 -7 26 -3 0 17 -40 65 -74 88 l-36 25 0 388 0 388 24 22 c19 18 28 21 44 12 16 -9 23 -7 35 13 15 23 14 24 -58 74 -40 29 -84 65 -98 82 -31 36 -40 37 -60 7z"/>
 <path d="M1106 4859 l29 -30 5 -309 5 -309 35 -36 c41 -43 102 -80 147 -90 l31 -6 -14 38 c-10 28 -13 109 -14 321 0 215 -3 290 -14 315 -28 69 -134 137 -212 137 l-28 0 30 -31z"/>
 <path d="M3503 4760 c0 -36 2 -50 4 -32 2 17 2 47 0 65 -2 17 -4 3 -4 -33z"/>
 <path d="M3213 4035 c0 -33 2 -45 4 -27 2 18 2 45 0 60 -2 15 -4 0 -4 -33z"/>
 <path d="M2957 3035 c-4 -11 -10 -27 -13 -35 -3 -8 1 -5 11 8 9 12 15 28 13 34 -3 7 -7 4 -11 -7z"/>
 <path d="M1303 2125 c0 -27 2 -38 4 -22 2 15 2 37 0 50 -2 12 -4 0 -4 -28z"/>
 <path d="M1313 1820 c0 -25 2 -35 4 -22 2 12 2 32 0 45 -2 12 -4 2 -4 -23z"/>
 <path d="M1089 1163 l-34 -38 38 34 c34 33 42 41 34 41 -2 0 -19 -17 -38 -37z"/>
 <path d="M1091 205 c0 -17 4 -36 11 -43 14 -14 44 -16 52 -4 2 4 -8 8 -22 7 -23 0 -28 5 -33 35 -6 35 -6 35 -8 5z"/>
 </g>

</svg>