<!DOCTYPE svg PUBLIC "-//W3C//DTD SVG 20010904//EN" "http://www.w3.org/TR/2001/REC-SVG-20010904/DTD/svg10.dtd">
<svg version="1.0" xmlns="http://www.w3.org/2000/svg" width="375px" height="854px" viewBox="0 0 3750 8540" preserveAspectRatio="xMidYMid meet">
<g id="layer101" fill="#1b1b19" stroke="none">
 <path d="M2120 8329 c-172 -29 -477 -156 -650 -272 -197 -131 -476 -384 -635 -574 -174 -208 -322 -440 -440 -686 -123 -258 -140 -348 -110 -592 44 -364 131 -762 225 -1030 18 -49 86 -202 152 -340 179 -374 220 -475 298 -745 39 -135 82 -274 96 -310 31 -80 53 -222 99 -640 33 -298 60 -477 115 -775 13 -70 24 -191 30 -330 5 -121 17 -297 26 -391 l16 -170 -22 -43 c-12 -24 -70 -94 -129 -155 -166 -173 -219 -248 -235 -338 -16 -86 20 -116 94 -78 40 20 42 20 37 3 -122 -374 -156 -574 -107 -623 26 -26 38 -25 82 5 l37 25 -6 -49 c-5 -43 -3 -50 16 -61 30 -16 56 2 127 88 136 163 257 423 365 780 34 114 98 400 213 960 201 971 249 1226 281 1475 43 333 95 616 151 814 l26 92 -26 33 c-52 70 -74 138 -105 328 -17 102 -125 791 -240 1531 -169 1080 -209 1352 -201 1379 21 73 112 132 260 169 228 56 605 114 757 115 97 1 110 3 100 16 -56 73 -190 220 -239 261 -139 115 -285 156 -458 128z"/>
 <path d="M2615 7869 c-112 -11 -414 -60 -566 -93 -146 -31 -220 -59 -264 -100 -29 -28 -35 -40 -35 -74 0 -23 90 -619 200 -1324 282 -1802 267 -1713 297 -1777 35 -73 156 -194 248 -246 124 -70 223 -190 268 -325 9 -25 57 -239 107 -474 69 -322 89 -430 80 -436 -15 -9 2 -100 25 -133 8 -12 15 -33 15 -47 0 -52 3 -52 203 -17 103 18 189 36 192 39 3 3 1 27 -5 53 -7 30 -7 51 -1 59 12 14 -4 107 -20 117 -15 9 -138 856 -139 954 0 44 7 105 15 135 21 81 78 187 134 252 63 73 87 113 111 182 42 122 43 116 -94 806 -69 349 -202 1027 -296 1505 -122 626 -175 877 -188 895 -34 46 -135 63 -287 49z"/>
 </g>
<g id="layer102" fill="#f2f2f1" stroke="none">
 <path d="M2198 8333 c17 -2 47 -2 65 0 17 2 3 4 -33 4 -36 0 -50 -2 -32 -4z"/>
 <path d="M2635 8140 c33 -33 62 -60 64 -60 3 0 -21 27 -54 60 -33 33 -62 60 -64 60 -3 0 21 -27 54 -60z"/>
 <path d="M980 7643 l-85 -88 88 85 c81 79 92 90 84 90 -1 0 -41 -39 -87 -87z"/>
 <path d="M2935 6021 c-60 -35 -83 -72 -141 -231 l-42 -115 -168 -3 -169 -2 -22 58 c-13 32 -23 60 -23 64 0 3 21 9 47 13 26 4 64 15 84 25 31 16 38 17 50 5 12 -12 17 -12 33 0 18 13 14 20 -64 110 -46 52 -84 95 -86 95 -2 0 -24 -15 -50 -32 -43 -31 -50 -33 -137 -33 -76 0 -100 4 -134 22 -54 28 -62 16 -31 -44 26 -52 107 -114 174 -134 l41 -13 118 -273 c108 -251 205 -511 205 -547 0 -29 21 -27 53 6 27 27 59 102 176 415 79 210 152 391 163 403 21 22 70 27 113 10 15 -6 25 -6 23 -1 -10 29 -145 231 -153 231 -5 0 -32 -13 -60 -29z m-255 -530 c0 -24 -84 -241 -91 -234 -7 8 -99 229 -99 238 0 3 43 5 95 5 52 0 95 -4 95 -9z"/>
 <path d="M1744 5119 c-21 -22 -61 -57 -89 -77 -27 -20 -52 -37 -54 -39 -2 -1 13 -21 33 -43 l36 -40 0 -170 0 -170 -110 0 -110 0 0 170 c0 131 3 168 13 165 6 -2 21 2 31 10 18 14 14 20 -80 117 -54 57 -101 103 -104 102 -3 0 -36 -15 -74 -34 -60 -29 -81 -34 -166 -38 -101 -5 -109 -3 -222 56 -4 2 -3 -10 3 -26 26 -74 130 -153 249 -188 58 -17 172 -22 243 -10 l47 7 0 -445 c0 -473 -2 -457 44 -440 14 5 16 32 16 190 l0 184 110 0 110 0 0 -132 0 -133 -33 -26 c-18 -14 -43 -29 -55 -33 -20 -7 -11 -16 78 -77 l101 -70 52 47 c61 55 90 68 135 59 l34 -6 -19 32 c-10 17 -35 43 -55 57 l-38 25 0 387 0 387 23 22 c15 13 30 19 41 15 18 -7 46 11 46 31 0 6 -26 29 -57 50 -32 22 -76 58 -99 82 l-41 42 -39 -40z"/>
 <path d="M1106 4859 l29 -30 5 -309 5 -309 40 -41 c39 -40 96 -73 147 -85 l28 -7 -15 36 c-12 28 -15 90 -15 321 0 270 -1 288 -21 327 -38 75 -117 127 -193 128 l-40 0 30 -31z"/>
 <path d="M3503 4765 c0 -27 2 -38 4 -22 2 15 2 37 0 50 -2 12 -4 0 -4 -28z"/>
 <path d="M3213 4040 c0 -36 2 -50 4 -32 2 17 2 47 0 65 -2 17 -4 3 -4 -33z"/>
 <path d="M1304 2030 c0 -58 1 -81 3 -52 2 28 2 76 0 105 -2 28 -3 5 -3 -53z"/>
 <path d="M1170 1253 l-85 -88 88 85 c48 46 87 86 87 87 0 8 -11 -3 -90 -84z"/>
 <path d="M1185 198 l-40 -43 43 40 c39 36 47 45 39 45 -2 0 -21 -19 -42 -42z"/>
 </g>

</svg>